<?xml version="1.0" standalone="no"?>
<!DOCTYPE svg PUBLIC "-//W3C//DTD SVG 20010904//EN"
 "http://www.w3.org/TR/2001/REC-SVG-20010904/DTD/svg10.dtd">
<svg version="1.0" xmlns="http://www.w3.org/2000/svg"
 width="80.000000pt" height="80.000000pt" viewBox="0 0 80.000000 80.000000"
 preserveAspectRatio="xMidYMid meet">
<metadata>
Created by potrace 1.11, written by Peter Selinger 2001-2013
</metadata>
<g transform="translate(0.000000,80.000000) scale(0.100000,-0.100000)"
fill="#000000" stroke="none">
<path d="M325 633 c-70 -37 -104 -96 -105 -180 0 -67 12 -97 60 -149 21 -23
50 -65 64 -92 29 -57 58 -82 96 -82 31 0 70 26 70 46 0 18 -15 18 -45 -2 -36
-23 -62 -9 -91 49 -15 29 -47 77 -73 107 -45 53 -46 56 -46 121 0 76 16 106
76 147 28 19 44 23 85 20 65 -5 105 -34 134 -94 15 -32 25 -43 32 -36 27 27
-42 128 -105 151 -41 16 -117 13 -152 -6z"/>
<path d="M366 590 c-64 -20 -105 -93 -92 -164 11 -58 27 -54 21 6 -8 65 17
112 71 134 44 19 83 11 119 -22 29 -27 39 -27 29 -1 -6 17 -81 58 -105 56 -8
0 -27 -5 -43 -9z"/>
<path d="M354 535 c-28 -19 -48 -69 -40 -100 10 -39 22 -29 18 14 -3 32 1 45
22 65 30 31 64 33 100 5 14 -11 26 -16 26 -10 0 35 -88 53 -126 26z"/>
</g>
</svg>
